<svg width="24" height="19" viewBox="0 0 24 19" fill="none" xmlns="http://www.w3.org/2000/svg">
<path d="M20.3095 1.86439C20.3028 1.8514 20.2918 1.84122 20.2784 1.83568C18.7297 1.11826 17.0953 0.606685 15.4162 0.313755C15.4009 0.310891 15.3852 0.312957 15.3711 0.319658C15.3571 0.326359 15.3455 0.337354 15.3381 0.351079C15.1155 0.758893 14.9135 1.17778 14.7327 1.60616C12.9228 1.32876 11.0817 1.32876 9.27168 1.60616C9.08976 1.1767 8.88449 0.757701 8.65683 0.351079C8.64902 0.337652 8.63738 0.32691 8.62344 0.320253C8.6095 0.313596 8.5939 0.311331 8.57866 0.313755C6.89938 0.60607 5.26489 1.11768 3.71634 1.83572C3.70308 1.8414 3.6919 1.85108 3.68433 1.86345C0.587523 6.53258 -0.260809 11.0869 0.155354 15.5849C0.156524 15.5959 0.159879 15.6066 0.165218 15.6162C0.170557 15.6259 0.177771 15.6344 0.186432 15.6413C1.98967 16.9893 4.00662 18.0182 6.1512 18.6842C6.1663 18.6887 6.18243 18.6885 6.19741 18.6836C6.21239 18.6786 6.22551 18.6691 6.23501 18.6564C6.69562 18.0237 7.10375 17.3536 7.45526 16.6531C7.46009 16.6435 7.46285 16.633 7.46335 16.6222C7.46385 16.6115 7.46209 16.6007 7.45818 16.5907C7.45427 16.5807 7.4483 16.5716 7.44066 16.564C7.43302 16.5565 7.42389 16.5507 7.41386 16.547C6.77026 16.2984 6.14719 15.9987 5.55048 15.6507C5.53964 15.6443 5.53053 15.6352 5.52397 15.6244C5.5174 15.6136 5.51358 15.6013 5.51284 15.5886C5.5121 15.5759 5.51446 15.5633 5.51971 15.5517C5.52496 15.5402 5.53295 15.5301 5.54296 15.5225C5.66852 15.4278 5.79191 15.3302 5.91301 15.2297C5.92363 15.2209 5.93649 15.2152 5.95013 15.2134C5.96376 15.2115 5.97764 15.2136 5.9902 15.2192C9.8995 17.0205 14.1319 17.0205 17.9949 15.2192C18.0075 15.2132 18.0215 15.2109 18.0353 15.2126C18.0492 15.2143 18.0623 15.2199 18.073 15.2288C18.1943 15.3298 18.318 15.4277 18.444 15.5225C18.4541 15.5301 18.4622 15.5401 18.4675 15.5515C18.4728 15.563 18.4753 15.5757 18.4746 15.5884C18.474 15.601 18.4702 15.6133 18.4638 15.6242C18.4573 15.6351 18.4482 15.6442 18.4375 15.6507C17.8421 16.0016 17.2185 16.3011 16.5732 16.5461C16.5632 16.5499 16.5541 16.5558 16.5465 16.5635C16.5389 16.5711 16.533 16.5803 16.5291 16.5904C16.5253 16.6005 16.5236 16.6113 16.5242 16.6222C16.5248 16.633 16.5276 16.6435 16.5325 16.6531C16.8899 17.3497 17.2975 18.0189 17.7519 18.6553C17.7611 18.6684 17.7741 18.6782 17.7892 18.6833C17.8042 18.6885 17.8205 18.6887 17.8357 18.684C19.9841 18.0203 22.0046 16.9913 23.8101 15.6413C23.8189 15.6348 23.8262 15.6265 23.8315 15.6169C23.8369 15.6074 23.8402 15.5967 23.8412 15.5858C24.3394 10.3857 23.007 5.86871 20.3095 1.86439ZM8.03908 12.8461C6.86209 12.8461 5.89229 11.7556 5.89229 10.4164C5.89229 9.07711 6.84328 7.98655 8.03908 7.98655C9.24422 7.98655 10.2046 9.08659 10.1858 10.4163C10.1858 11.7556 9.2348 12.8461 8.03908 12.8461ZM15.9764 12.8461C14.7994 12.8461 13.8296 11.7556 13.8296 10.4164C13.8296 9.07711 14.7806 7.98655 15.9764 7.98655C17.1816 7.98655 18.142 9.08659 18.1232 10.4163C18.1232 11.7556 17.1816 12.8461 15.9764 12.8461Z" fill="white" fill-opacity="0.7"/>
</svg>
