<svg width="24" height="22" viewBox="0 0 24 22" fill="none" xmlns="http://www.w3.org/2000/svg">
<path d="M20.6389 8.53887C19.9358 8.53887 19.3171 8.82949 18.8624 9.28418C17.1889 8.12637 14.9342 7.38106 12.4358 7.30137L13.7342 1.45137L17.8686 2.37949C17.8686 3.39199 18.6936 4.21699 19.7061 4.21699C20.7374 4.21699 21.5671 3.36855 21.5671 2.35605C21.5671 1.34355 20.7421 0.495117 19.7061 0.495117C18.9842 0.495117 18.3608 0.931055 18.0514 1.52637L13.4858 0.513867C13.2561 0.45293 13.0311 0.616992 12.9702 0.84668L11.5452 7.29668C9.06549 7.39981 6.83424 8.14512 5.15612 9.30293C4.70143 8.82949 4.05924 8.53887 3.35612 8.53887C0.749867 8.53887 -0.103258 12.0357 2.28268 13.2311C2.19831 13.6014 2.1608 13.9951 2.1608 14.3889C2.1608 18.317 6.5858 21.4998 12.0186 21.4998C17.4749 21.4998 21.8999 18.317 21.8999 14.3889C21.8999 13.9951 21.8577 13.5826 21.7546 13.2123C24.0936 12.0123 23.2311 8.53887 20.6389 8.53887ZM6.06549 13.4795C6.06549 12.4482 6.89049 11.6186 7.92643 11.6186C8.93893 11.6186 9.76393 12.4436 9.76393 13.4795C9.76393 14.492 8.93893 15.317 7.92643 15.317C6.89518 15.3217 6.06549 14.492 6.06549 13.4795ZM16.1108 17.8623C14.4046 19.5686 9.59049 19.5686 7.88424 17.8623C7.69674 17.6982 7.69674 17.4076 7.88424 17.2201C8.04831 17.0561 8.33893 17.0561 8.50299 17.2201C9.80612 18.5561 14.128 18.5795 15.4874 17.2201C15.6514 17.0561 15.9421 17.0561 16.1061 17.2201C16.2983 17.4076 16.2983 17.6982 16.1108 17.8623ZM16.0733 15.3217C15.0608 15.3217 14.2358 14.4967 14.2358 13.4842C14.2358 12.4529 15.0608 11.6232 16.0733 11.6232C17.1046 11.6232 17.9342 12.4482 17.9342 13.4842C17.9296 14.492 17.1046 15.3217 16.0733 15.3217Z" fill="white" fill-opacity="0.7"/>
</svg>
