<svg width="206" height="206" viewBox="0 0 206 206" fill="none" xmlns="http://www.w3.org/2000/svg">
<path d="M170.485 180.121C171.104 179.564 171.723 179.038 172.28 178.481C178.56 172.731 184.074 166.198 188.686 159.042C192.176 153.864 195.112 148.334 197.446 142.543C198.189 140.81 198.932 138.86 199.644 136.879L200.108 135.455L200.294 134.898C200.479 134.371 200.634 133.814 200.82 133.288C201.687 130.502 202.398 127.778 202.987 125.147L203.544 122.578V122.237C203.544 121.618 203.761 120.999 203.884 120.411C204.709 115.8 205.185 111.133 205.308 106.451C205.308 105.646 205.308 104.81 205.308 104.005V100.91C205.308 100.631 205.308 100.322 205.308 100.012C205.187 95.5957 204.784 91.1913 204.101 86.826C204.101 86.826 204.101 86.6403 204.101 86.5474C204.101 86.1759 204.101 85.8354 203.946 85.4949C203.729 84.071 203.389 82.3996 202.987 80.7899C202.801 79.8923 202.615 78.9946 202.429 78.2208C201.934 76.1159 201.16 73.33 200.479 71.2561C200.17 70.2656 199.829 69.2751 199.489 68.1607C199.272 67.6035 199.086 67.0464 198.901 66.5202C198.715 65.9939 198.344 65.0962 198.065 64.4153C197.229 62.3104 196.301 60.1436 195.248 57.9459C194.443 56.2331 193.546 54.4996 192.555 52.7456C187.646 43.8254 181.38 35.722 173.983 28.7253C169.676 24.4975 164.981 20.6838 159.961 17.3343L159.342 16.9318C157.856 15.9413 156.246 14.9817 154.636 13.9912C153.522 13.3102 152.191 12.5673 151.046 11.9792L150.705 11.7935C148.817 10.8339 147.981 10.3696 146.557 9.71955L146.062 9.5029C144.484 8.72905 143.369 8.23375 141.914 7.67658L139.128 6.5313H138.943C137.736 6.06699 136.497 5.63364 135.259 5.23123C134.176 4.89074 133.092 4.51929 131.978 4.20975L129.688 3.55969L128.821 3.3121C122.885 1.7151 116.812 0.678759 110.682 0.216701H109.753C107.896 0.216701 106.163 0.030954 104.77 0H103.129C100.776 0 97.8668 1.89113e-06 94.0904 0.340496C76.5756 1.6446 59.7155 7.54939 45.2141 17.4581L43.9449 18.3248C41.7162 19.8725 39.4875 21.4202 37.7541 23.0298L37.3827 23.3084C35.9588 24.5156 34.2874 25.8776 32.8945 27.3014L32.1514 27.9205L31.4086 28.6944L29.8609 30.1801C28.6537 31.3874 27.5083 32.5636 26.5178 33.678L23.9488 36.7734L23.6701 37.1139L22.8345 38.1353L21.5343 39.7449V39.8997C10.7928 53.482 3.79238 69.6385 1.22844 86.764C1.22844 87.1974 1.07364 87.6308 1.01173 88.0641C0.99657 88.2599 0.99657 88.4565 1.01173 88.6522C1.01173 89.3023 0.826147 89.9214 0.764239 90.5095C-0.858603 103.653 0.108814 116.987 3.61195 129.759C8.30631 148.852 18.7816 166.03 33.6064 178.945L33.9778 179.286C34.5969 179.843 35.2469 180.431 35.9279 180.988L36.7018 181.669L37.7541 182.536L38.9614 183.495C40.571 184.764 41.6544 185.569 41.7473 185.631C43.1402 186.684 44.0379 187.334 45.6475 188.355L45.895 188.541L46.2357 188.757L46.5761 188.974C47.1952 189.408 47.8762 189.81 48.5572 190.243L48.8667 190.46L50.0739 191.172C51.2502 191.915 52.8288 192.781 54.1289 193.462L54.5003 193.679L55.1812 194.02H55.3669C56.7289 194.732 57.5339 195.134 58.803 195.722L59.1744 195.908L61.8674 197.115L62.9817 197.579L64.2507 198.106L65.7057 198.663C67.5939 199.406 69.4201 200.025 71.2154 200.613C78.7635 203.065 86.5785 204.603 94.4929 205.194H95.3904C96.6905 205.194 97.9288 205.349 99.2289 205.38H100.374C101.86 205.38 104.336 205.38 107.153 205.38C112.355 205.171 117.531 204.539 122.63 203.492L124.859 203.027L126.561 202.625C135.902 200.515 144.867 196.998 153.151 192.193L154.729 191.265H154.977C160.48 188.053 165.663 184.322 170.454 180.121H170.485Z" fill="url(#paint0_radial_1805_34707)"/>
<g style="mix-blend-mode:screen" opacity="0.7">
<g style="mix-blend-mode:screen">
<path d="M157.732 43.3979C154.636 43.3979 153.429 45.2551 154.327 48.4743C155.881 53.2368 157.162 58.0837 158.165 62.9917C161.414 79.0784 162.383 95.5423 161.044 111.899C160.796 118.09 165.068 120.597 168.163 117.718C169.45 116.398 170.266 114.69 170.485 112.859C172.637 96.6289 172.083 80.1545 168.844 64.1061C167.841 59.1657 166.517 54.2956 164.882 49.5267C164.329 47.9636 163.379 46.571 162.126 45.4857C160.872 44.4004 159.358 43.6595 157.732 43.3359M100.9 46.3075C100.1 46.3869 99.3244 46.6278 98.6201 47.0157C97.9158 47.4036 97.2976 47.9303 96.8028 48.564C96.308 49.1977 95.9467 49.9253 95.7412 50.7027C95.5357 51.48 95.4901 52.2909 95.6071 53.0864C96.5976 57.6676 97.6294 62.5274 98.7025 67.6658C102.015 83.5452 105.389 100.106 108.546 116.047C110.094 122.238 116.47 123.135 119.256 118.833C120.185 117.394 120.569 115.67 120.339 113.973C118.173 97.846 115.387 81.1927 112.075 65.3442C111.022 60.2059 109.99 55.3461 108.979 50.7649C108.438 49.1435 107.306 47.7851 105.81 46.9594C104.313 46.1336 102.561 45.901 100.9 46.3075ZM137.828 70.7612C136.981 70.7984 136.152 71.0184 135.397 71.4061C134.643 71.7939 133.981 72.3403 133.458 73.0077C132.935 73.6752 132.562 74.448 132.365 75.273C132.168 76.0981 132.153 76.956 132.319 77.7878C134.102 89.1711 135.29 100.64 135.878 112.147C136.497 118.492 142.502 120.164 145.722 116.264C146.79 114.926 147.378 113.27 147.393 111.559C147.494 100.047 146.759 88.5431 145.195 77.1377C144.954 75.3601 144.073 73.7316 142.717 72.5577C141.36 71.3837 139.622 70.7449 137.828 70.7612ZM77.2824 81.2236C75.6005 81.7925 74.1964 82.977 73.3523 84.539C72.5081 86.1009 72.2867 87.9245 72.7322 89.6431C75.549 100.787 78.9229 111.961 82.6993 122.702C85.0518 128.645 91.3665 128.893 93.3785 124.374C94.0318 122.814 94.1408 121.081 93.688 119.452C90.5926 108.525 87.652 97.2268 85.0519 85.9905C84.8875 85.1497 84.5502 84.3521 84.0617 83.6482C83.5731 82.9444 82.9439 82.3495 82.2136 81.9015C81.4833 81.4534 80.6679 81.1618 79.8191 81.0451C78.9703 80.9284 78.1065 80.9893 77.2824 81.2236ZM146.681 17.768C143.586 17.3346 140.49 16.9941 137.178 16.7465C133.866 16.4988 135.507 18.8823 136.281 19.6561C136.901 20.2354 137.599 20.7251 138.355 21.111L142.75 23.4944C139.033 29.4173 134.895 35.0654 130.369 40.3953C97.2787 21.1419 94.8024 23.4635 92.6046 25.4755C74.7751 44.7908 68.7082 54.727 68.6773 54.8199C68.2603 55.4133 68.0155 56.1104 67.9701 56.8342C67.9247 57.558 68.0805 58.2802 68.4201 58.921C68.7597 59.5618 69.2701 60.0961 69.8945 60.4649C70.519 60.8337 71.2333 61.0226 71.9584 61.0107C72.8289 60.984 73.68 60.7477 74.4398 60.322C75.1995 59.8964 75.8455 59.2937 76.3228 58.5653C82.8052 49.1412 89.8769 40.1363 97.4954 31.6044C108.825 37.1142 119.008 44.6669 130.523 49.8053C131.466 50.2961 132.539 50.4822 133.592 50.3381C134.645 50.1939 135.628 49.7266 136.404 49.0005C141.789 42.5002 146.653 35.5864 150.953 28.3232C156.772 32.2544 156.772 32.2544 158.351 32.5949C159.93 32.9354 161.168 32.3782 159.558 29.7471C157.408 26.615 155.018 23.6551 152.408 20.8943C150.877 19.3454 148.931 18.2707 146.805 17.7989" fill="white"/>
</g>
</g>
<defs>
<radialGradient id="paint0_radial_1805_34707" cx="0" cy="0" r="1" gradientUnits="userSpaceOnUse" gradientTransform="translate(97.2168 124.868) scale(123.011 123.011)">
<stop stop-color="#055793"/>
<stop offset="0.15" stop-color="#0E62A0"/>
<stop offset="0.44" stop-color="#2781C3"/>
<stop offset="0.79" stop-color="#4BACF6"/>
<stop offset="0.82" stop-color="#53B0F6"/>
<stop offset="0.86" stop-color="#67BAF8"/>
<stop offset="0.92" stop-color="#8ACAF9"/>
<stop offset="0.97" stop-color="#B9E0FC"/>
<stop offset="1" stop-color="#CFEBFD"/>
</radialGradient>
</defs>
</svg>
