<svg  viewBox="0 0 20 20" fill="none" xmlns="http://www.w3.org/2000/svg">
<path d="M10.0003 1.66699C5.40866 1.66699 1.66699 5.40866 1.66699 10.0003C1.66699 14.592 5.40866 18.3337 10.0003 18.3337C14.592 18.3337 18.3337 14.592 18.3337 10.0003C18.3337 5.40866 14.592 1.66699 10.0003 1.66699ZM12.8003 11.917C13.042 12.1587 13.042 12.5587 12.8003 12.8003C12.6753 12.9253 12.517 12.9837 12.3587 12.9837C12.2003 12.9837 12.042 12.9253 11.917 12.8003L10.0003 10.8837L8.08366 12.8003C7.95866 12.9253 7.80033 12.9837 7.64199 12.9837C7.48366 12.9837 7.32533 12.9253 7.20033 12.8003C6.95866 12.5587 6.95866 12.1587 7.20033 11.917L9.11699 10.0003L7.20033 8.08366C6.95866 7.84199 6.95866 7.44199 7.20033 7.20033C7.44199 6.95866 7.84199 6.95866 8.08366 7.20033L10.0003 9.11699L11.917 7.20033C12.1587 6.95866 12.5587 6.95866 12.8003 7.20033C13.042 7.44199 13.042 7.84199 12.8003 8.08366L10.8837 10.0003L12.8003 11.917Z" fill="#EB5757"/>
</svg>
