<svg width="12" height="11" viewBox="0 0 12 11" fill="none" xmlns="http://www.w3.org/2000/svg">
<path d="M6.9398 5.50012L11.1398 1.30679C11.2653 1.18125 11.3359 1.01099 11.3359 0.833457C11.3359 0.655923 11.2653 0.485659 11.1398 0.360124C11.0143 0.234588 10.844 0.164062 10.6665 0.164062C10.4889 0.164062 10.3187 0.234588 10.1931 0.360124L5.9998 4.56012L1.80646 0.360124C1.68093 0.234588 1.51066 0.164063 1.33313 0.164063C1.1556 0.164063 0.985332 0.234588 0.859797 0.360124C0.734261 0.485659 0.663736 0.655923 0.663736 0.833457C0.663736 1.01099 0.734261 1.18125 0.859797 1.30679L5.0598 5.50012L0.859797 9.69346C0.797311 9.75543 0.747715 9.82917 0.713869 9.91041C0.680023 9.99164 0.662598 10.0788 0.662598 10.1668C0.662598 10.2548 0.680023 10.3419 0.713869 10.4232C0.747715 10.5044 0.797311 10.5781 0.859797 10.6401C0.921772 10.7026 0.995506 10.7522 1.07675 10.7861C1.15798 10.8199 1.24512 10.8373 1.33313 10.8373C1.42114 10.8373 1.50827 10.8199 1.58951 10.7861C1.67075 10.7522 1.74449 10.7026 1.80646 10.6401L5.9998 6.44012L10.1931 10.6401C10.2551 10.7026 10.3288 10.7522 10.4101 10.7861C10.4913 10.8199 10.5785 10.8373 10.6665 10.8373C10.7545 10.8373 10.8416 10.8199 10.9228 10.7861C11.0041 10.7522 11.0778 10.7026 11.1398 10.6401C11.2023 10.5781 11.2519 10.5044 11.2857 10.4232C11.3196 10.3419 11.337 10.2548 11.337 10.1668C11.337 10.0788 11.3196 9.99164 11.2857 9.91041C11.2519 9.82917 11.2023 9.75543 11.1398 9.69346L6.9398 5.50012Z" fill="white"/>
</svg>
