<svg width="44" height="58" viewBox="0 0 44 58" fill="none" xmlns="http://www.w3.org/2000/svg">
<path d="M43 29.0002H23V15.6252C23.355 15.6252 23.775 15.6702 24.255 15.6702C26.755 15.6702 30.755 15.1302 34.045 12.2252C39.15 7.72525 39.045 2.17525 39.045 1.94025C39.0372 1.68026 38.9284 1.43355 38.7417 1.25246C38.555 1.07136 38.3051 0.97013 38.045 0.970247C37.735 0.970247 30.295 0.845247 25.495 4.47025C21.855 7.20025 21.14 11.9402 20.995 13.7752C20.9882 13.8502 20.9899 13.9257 21 14.0002V17.4302C20.1619 15.8944 19.0062 14.5547 17.61 13.5002C11.61 9.00025 2.305 9.14025 1.91 9.15025C1.64906 9.15016 1.39842 9.25208 1.21159 9.43425C1.02475 9.61641 0.916523 9.86439 0.91 10.1252C0.91 10.4152 0.795 17.3002 7.16 22.9152C10.2493 25.5696 14.2078 26.9935 18.28 26.9152C19.1905 26.9065 20.0994 26.8346 21 26.7002V29.0002H1C0.734784 29.0002 0.48043 29.1056 0.292893 29.2931C0.105357 29.4807 0 29.735 0 30.0002C0 30.2655 0.105357 30.5198 0.292893 30.7074C0.48043 30.8949 0.734784 31.0002 1 31.0002H21V33.0452C17.9148 33.3032 15.0487 34.7437 13.0007 37.0654C10.9527 39.3872 9.88133 42.4107 10.0104 45.5039C10.1395 48.5972 11.4592 51.5209 13.6935 53.6639C15.9279 55.807 18.904 57.0035 22 57.0035C25.096 57.0035 28.0721 55.807 30.3065 53.6639C32.5408 51.5209 33.8604 48.5972 33.9896 45.5039C34.1187 42.4107 33.0473 39.3872 30.9993 37.0654C28.9513 34.7437 26.0852 33.3032 23 33.0452V31.0002H43C43.2652 31.0002 43.5196 30.8949 43.7071 30.7074C43.8946 30.5198 44 30.2655 44 30.0002C44 29.735 43.8946 29.4807 43.7071 29.2931C43.5196 29.1056 43.2652 29.0002 43 29.0002ZM26.73 6.05025C30 3.61025 34.855 3.10025 37 3.00025C36.555 6.00508 35.0427 8.74916 32.74 10.7302C29.355 13.7302 24.93 13.7602 23.08 13.6202C23.235 11.9102 23.935 8.14525 26.73 6.05025ZM8.5 21.4002C5.46839 18.7784 3.51012 15.1307 3 11.1552C5.525 11.2502 12.065 11.8252 16.41 15.0852C20.18 17.9102 20.855 22.7752 20.975 24.6752C18.895 25.0002 13.065 25.4302 8.5 21.4002ZM32 45.0002C32 46.9781 31.4135 48.9115 30.3147 50.556C29.2159 52.2004 27.6541 53.4822 25.8268 54.239C23.9996 54.9959 21.9889 55.194 20.0491 54.8081C18.1093 54.4222 16.3275 53.4698 14.9289 52.0713C13.5304 50.6728 12.578 48.891 12.1921 46.9512C11.8063 45.0113 12.0043 43.0007 12.7612 41.1734C13.5181 39.3461 14.7998 37.7844 16.4443 36.6856C18.0888 35.5867 20.0222 35.0002 22 35.0002C24.6522 35.0002 27.1957 36.0538 29.0711 37.9292C30.9464 39.8045 32 42.3481 32 45.0002Z" fill="url(#paint0_linear_1975_57900)"/>
<defs>
<linearGradient id="paint0_linear_1975_57900" x1="4.67889" y1="42.4761" x2="36.5765" y2="32.0713" gradientUnits="userSpaceOnUse">
<stop stop-color="#047CFD"/>
<stop offset="1" stop-color="#31B8F7"/>
</linearGradient>
</defs>
</svg>
