<svg width="37" height="18" viewBox="0 0 37 18" fill="none" xmlns="http://www.w3.org/2000/svg">
<rect y="0.5" width="36.5623" height="17" rx="8.5" fill="#921F1F"/>
<path d="M11.14 5.53V12.5H10.23V9.34H6.68V12.5H5.77V5.53H6.68V8.59H10.23V5.53H11.14ZM15.0838 12.59C14.5705 12.59 14.1038 12.4733 13.6838 12.24C13.2705 12.0067 12.9438 11.6767 12.7038 11.25C12.4705 10.8167 12.3538 10.3167 12.3538 9.75C12.3538 9.19 12.4738 8.69667 12.7138 8.27C12.9605 7.83667 13.2938 7.50667 13.7138 7.28C14.1338 7.04667 14.6038 6.93 15.1238 6.93C15.6438 6.93 16.1138 7.04667 16.5338 7.28C16.9538 7.50667 17.2838 7.83333 17.5238 8.26C17.7705 8.68667 17.8938 9.18333 17.8938 9.75C17.8938 10.3167 17.7672 10.8167 17.5138 11.25C17.2672 11.6767 16.9305 12.0067 16.5038 12.24C16.0772 12.4733 15.6038 12.59 15.0838 12.59ZM15.0838 11.79C15.4105 11.79 15.7172 11.7133 16.0038 11.56C16.2905 11.4067 16.5205 11.1767 16.6938 10.87C16.8738 10.5633 16.9638 10.19 16.9638 9.75C16.9638 9.31 16.8772 8.93667 16.7038 8.63C16.5305 8.32333 16.3038 8.09667 16.0238 7.95C15.7438 7.79667 15.4405 7.72 15.1138 7.72C14.7805 7.72 14.4738 7.79667 14.1938 7.95C13.9205 8.09667 13.7005 8.32333 13.5338 8.63C13.3672 8.93667 13.2838 9.31 13.2838 9.75C13.2838 10.1967 13.3638 10.5733 13.5238 10.88C13.6905 11.1867 13.9105 11.4167 14.1838 11.57C14.4572 11.7167 14.7572 11.79 15.0838 11.79ZM20.2003 7.77V11C20.2003 11.2667 20.257 11.4567 20.3703 11.57C20.4836 11.6767 20.6803 11.73 20.9603 11.73H21.6303V12.5H20.8103C20.3036 12.5 19.9236 12.3833 19.6703 12.15C19.417 11.9167 19.2903 11.5333 19.2903 11V7.77H18.5803V7.02H19.2903V5.64H20.2003V7.02H21.6303V7.77H20.2003Z" fill="#EFEFEF"/>
<path d="M31.5623 10.3607C31.5623 12.8479 29.5032 14.8479 27.0161 14.6995C24.46 14.547 22.7104 12.0887 23.0398 9.51917C23.2392 7.95631 23.9719 6.61609 24.7694 5.57636C24.9081 5.39492 25.0504 6.85502 25.1927 6.69437C25.3354 6.52924 26.6581 4.24021 27.118 3.43615C27.1378 3.40069 27.1649 3.3699 27.1977 3.34587C27.2304 3.32184 27.2679 3.30514 27.3077 3.2969C27.3475 3.28866 27.3885 3.28908 27.4281 3.29812C27.4677 3.30716 27.5049 3.32462 27.5371 3.34931C28.4611 4.04653 31.5623 6.66542 31.5623 10.3607Z" fill="#FF6723"/>
<path d="M30 10.8662C30 12.3554 28.827 13.5524 27.4004 13.4982C25.8604 13.4408 24.8045 11.8831 25.0305 10.2786C25.3568 7.97812 27.4934 6.5 27.4934 6.5C27.4934 6.5 30 8.23418 30 10.8662Z" fill="#FFB02E"/>
</svg>
