<svg width="63" height="85" viewBox="0 0 63 85" fill="none" xmlns="http://www.w3.org/2000/svg">
<g clip-path="url(#clip0_2886_17955)">
<path d="M39.6302 15.8826C39.6302 15.8826 42.2709 0.896484 33.0627 0.896484C23.8546 0.896484 26.4884 15.8826 26.4884 15.8826" stroke="#4E150C" stroke-width="0.695557" stroke-miterlimit="10" stroke-linecap="round"/>
<path d="M45.3222 13.015H8.14062L16.4594 11.9594L16.6442 10.1191H54.1609L45.3222 11.5636V13.015Z" fill="#E3E3E3"/>
<path d="M45.3223 84.5011L62.9998 77.8552L59.9349 67.5428L54.161 10.1191L45.3223 11.5636V13.015V84.5011Z" fill="#A0A0A0"/>
<path d="M45.3223 84.5006L55.2009 71.4243L62.9998 77.8548L55.5429 69.6743L49.0438 14.7715L54.161 69.6743L45.3223 84.5006Z" fill="#7E7E7E"/>
<path d="M8.21419 12.9355H45.3958L47.4823 70.9564L45.3958 84.4217L0.0732422 77.123L4.77994 63.9703L8.21419 12.9355Z" fill="#B4B4B4"/>
<path d="M13.8738 66.1803L44.098 68.7081L45.3225 13.0137L47.4091 71.0345L45.3225 84.4998L0 77.2012L43.1197 81.8956L44.0706 71.8053L13.8738 66.1803Z" fill="#BEBEBE"/>
<path d="M33.0908 16.9937C33.0922 17.209 33.1563 17.4191 33.2752 17.5975C33.394 17.7759 33.5622 17.9146 33.7586 17.996C33.955 18.0775 34.1707 18.0981 34.3786 18.0552C34.5865 18.0124 34.7772 17.908 34.9268 17.7552C35.0763 17.6025 35.1779 17.4082 35.2188 17.1969C35.2597 16.9856 35.238 16.7668 35.1565 16.5679C35.075 16.3691 34.9374 16.1992 34.7609 16.0797C34.5844 15.9602 34.377 15.8965 34.1649 15.8965C34.0233 15.8965 33.883 15.9249 33.7523 15.9801C33.6215 16.0354 33.5028 16.1163 33.403 16.2183C33.3032 16.3202 33.2242 16.4413 33.1706 16.5743C33.1171 16.7074 33.0899 16.8499 33.0908 16.9937Z" fill="#C8C8C8"/>
<path d="M19.9146 16.993C19.9362 17.2681 20.0591 17.5247 20.2587 17.7119C20.4584 17.8991 20.7202 18.003 20.992 18.003C21.2638 18.003 21.5257 17.8991 21.7253 17.7119C21.925 17.5247 22.0479 17.2681 22.0695 16.993C22.0814 16.8421 22.0623 16.6903 22.0136 16.5471C21.9648 16.404 21.8874 16.2727 21.7862 16.1614C21.6849 16.0502 21.5621 15.9614 21.4255 15.9007C21.2888 15.84 21.1412 15.8086 20.992 15.8086C20.8429 15.8086 20.6953 15.84 20.5586 15.9007C20.4219 15.9614 20.2991 16.0502 20.1979 16.1614C20.0967 16.2727 20.0193 16.404 19.9705 16.5471C19.9218 16.6903 19.9027 16.8421 19.9146 16.993Z" fill="#C8C8C8"/>
<path d="M34.1369 16.9933C34.1369 16.9933 37.1265 1.98633 27.9115 1.98633C18.6964 1.98633 20.9882 16.9933 20.9882 16.9933" stroke="#4E150C" stroke-width="0.695557" stroke-miterlimit="10" stroke-linecap="round"/>
<path d="M25.4143 50.5837V50.1632C25.4227 48.7201 25.5531 47.5698 25.8055 46.7122C26.0663 45.8546 26.4449 45.1619 26.9414 44.6342C27.4378 44.1064 28.0351 43.6281 28.7335 43.1993C29.2551 42.8695 29.7221 42.5273 30.1344 42.1727C30.5466 41.8181 30.8748 41.4264 31.1188 40.9976C31.3628 40.5606 31.4848 40.0741 31.4848 39.5381C31.4848 38.9691 31.346 38.4702 31.0683 38.0414C30.7906 37.6126 30.4162 37.2827 29.9451 37.0519C29.4823 36.821 28.9691 36.7055 28.4053 36.7055C27.8585 36.7055 27.341 36.8251 26.853 37.0642C26.365 37.2951 25.9654 37.6415 25.654 38.1032C25.3427 38.5568 25.1745 39.1216 25.1492 39.7978H20C20.0421 38.1486 20.4459 36.788 21.2116 35.716C21.9772 34.6357 22.9911 33.8317 24.2532 33.304C25.5152 32.768 26.9077 32.5 28.4306 32.5C30.1049 32.5 31.5857 32.7721 32.8731 33.3164C34.1604 33.8524 35.17 34.6316 35.902 35.6541C36.634 36.6767 37 37.9095 37 39.3525C37 40.3173 36.8359 41.1749 36.5078 41.9253C36.1881 42.6675 35.7379 43.3271 35.1574 43.9044C34.5768 44.4734 33.8911 44.9887 33.1002 45.4505C32.4355 45.8381 31.8886 46.2422 31.4595 46.6627C31.0389 47.0833 30.7233 47.5698 30.513 48.1223C30.3111 48.6748 30.2059 49.3551 30.1975 50.1632V50.5837H25.4143ZM27.9131 58.5C27.0718 58.5 26.3524 58.2114 25.755 57.6342C25.166 57.0487 24.8758 56.3478 24.8842 55.5314C24.8758 54.7233 25.166 54.0306 25.755 53.4534C26.3524 52.8762 27.0718 52.5875 27.9131 52.5875C28.7124 52.5875 29.415 52.8762 30.0208 53.4534C30.6266 54.0306 30.9337 54.7233 30.9421 55.5314C30.9337 56.0756 30.7864 56.5745 30.5004 57.0281C30.2227 57.4734 29.8567 57.8321 29.4024 58.1042C28.948 58.3681 28.4516 58.5 27.9131 58.5Z" fill="#FFFF00"/>
</g>
<defs>
<clipPath id="clip0_2886_17955">
<rect width="63" height="84" fill="white" transform="translate(0 0.5)"/>
</clipPath>
</defs>
</svg>
