<svg width="16" height="16" viewBox="0 0 16 16" fill="none" xmlns="http://www.w3.org/2000/svg">
<rect width="16" height="16" rx="8" fill="#2F2F39"/>
<path d="M7.596 3.12C8.396 3.12 9.036 3.336 9.516 3.768C9.996 4.2 10.236 4.8 10.236 5.568C10.236 6.4 9.976 7.028 9.456 7.452C8.944 7.868 8.244 8.084 7.356 8.1V9.42H6.06V7.188H6.636C7.332 7.188 7.88 7.076 8.28 6.852C8.68 6.62 8.88 6.196 8.88 5.58C8.88 5.164 8.76 4.84 8.52 4.608C8.28 4.368 7.956 4.248 7.548 4.248C7.116 4.248 6.768 4.372 6.504 4.62C6.24 4.868 6.108 5.192 6.108 5.592H4.8C4.792 5.112 4.9 4.688 5.124 4.32C5.348 3.944 5.672 3.652 6.096 3.444C6.52 3.228 7.02 3.12 7.596 3.12ZM7.5 10.488V12H5.94V10.488H7.5Z" fill="white" fill-opacity="0.48"/>
</svg>
