<svg width="18" height="23" viewBox="0 0 18 23" fill="none" xmlns="http://www.w3.org/2000/svg">
<path d="M8.73376 15.8014L6.80064 17.7345C6.73079 17.8048 6.69159 17.8998 6.69159 17.9989C6.69159 18.098 6.73079 18.193 6.80064 18.2633L8.73376 20.1964C8.80377 20.2668 8.89884 20.3066 8.99814 20.307C9.04762 20.3071 9.09662 20.2973 9.14232 20.2783C9.18801 20.2593 9.2295 20.2315 9.26439 20.1964L11.1956 18.2633C11.2655 18.193 11.3047 18.098 11.3047 17.9989C11.3047 17.8998 11.2655 17.8048 11.1956 17.7345L9.26439 15.8014C9.22956 15.7665 9.1882 15.7389 9.14268 15.72C9.09715 15.7011 9.04835 15.6914 8.99907 15.6914C8.94979 15.6914 8.901 15.7011 8.85547 15.72C8.80995 15.7389 8.76859 15.7665 8.73376 15.8014ZM10.4006 17.9989L9.00001 19.4014L7.59751 17.9989L9.00001 16.5964L10.4006 17.9989Z" fill="url(#paint0_linear_2440_48156)" stroke="#8D8D99"/>
<path d="M16.875 11.9997H9.375V6.9841C9.50813 6.9841 9.66563 7.00098 9.84562 7.00098C10.7831 7.00098 12.2831 6.79848 13.5169 5.7091C15.4312 4.0216 15.3919 1.94035 15.3919 1.85223C15.3889 1.75473 15.3482 1.66222 15.2781 1.5943C15.2081 1.52639 15.1144 1.48843 15.0169 1.48848C14.9006 1.48848 12.1106 1.4416 10.3106 2.80098C8.94562 3.82473 8.6775 5.60223 8.62313 6.29035C8.62057 6.31846 8.6212 6.34676 8.625 6.37473V7.66098C8.31071 7.08503 7.87734 6.58263 7.35375 6.18723C5.10375 4.49973 1.61437 4.55223 1.46625 4.55598C1.3684 4.55595 1.27441 4.59417 1.20435 4.66248C1.13428 4.73079 1.0937 4.82378 1.09125 4.9216C1.09125 5.03035 1.04813 7.61223 3.435 9.71785C4.59349 10.7132 6.07791 11.2472 7.605 11.2179C7.94645 11.2146 8.28727 11.1876 8.625 11.1372V11.9997H1.125C1.02554 11.9997 0.930161 12.0392 0.859835 12.1096C0.789509 12.1799 0.75 12.2753 0.75 12.3747C0.75 12.4742 0.789509 12.5696 0.859835 12.6399C0.930161 12.7102 1.02554 12.7497 1.125 12.7497H8.625V13.5166C7.46805 13.6133 6.39327 14.1535 5.62527 15.0242C4.85727 15.8948 4.4555 17.0286 4.50391 18.1886C4.55233 19.3486 5.04719 20.445 5.88507 21.2486C6.72296 22.0522 7.83902 22.5009 9 22.5009C10.161 22.5009 11.277 22.0522 12.1149 21.2486C12.9528 20.445 13.4477 19.3486 13.4961 18.1886C13.5445 17.0286 13.1427 15.8948 12.3747 15.0242C11.6067 14.1535 10.5319 13.6133 9.375 13.5166V12.7497H16.875C16.9745 12.7497 17.0698 12.7102 17.1402 12.6399C17.2105 12.5696 17.25 12.4742 17.25 12.3747C17.25 12.2753 17.2105 12.1799 17.1402 12.1096C17.0698 12.0392 16.9745 11.9997 16.875 11.9997ZM10.7738 3.39348C12 2.47848 13.8206 2.28723 14.625 2.24973C14.4581 3.37654 13.891 4.40557 13.0275 5.14848C11.7581 6.27348 10.0988 6.28473 9.405 6.23223C9.46313 5.59098 9.72563 4.1791 10.7738 3.39348ZM3.9375 9.14973C2.80064 8.16655 2.06629 6.79865 1.875 5.30785C2.82188 5.34348 5.27437 5.5591 6.90375 6.7816C8.3175 7.84098 8.57063 9.66535 8.61563 10.3779C7.83563 10.4997 5.64937 10.661 3.9375 9.14973ZM12.75 17.9997C12.75 18.7414 12.5301 19.4664 12.118 20.0831C11.706 20.6998 11.1203 21.1804 10.4351 21.4643C9.74984 21.7481 8.99584 21.8224 8.26841 21.6777C7.54098 21.533 6.8728 21.1758 6.34835 20.6514C5.8239 20.1269 5.46675 19.4587 5.32205 18.7313C5.17736 18.0039 5.25162 17.2499 5.53545 16.5647C5.81928 15.8794 6.29993 15.2938 6.91661 14.8817C7.5333 14.4697 8.25832 14.2497 9 14.2497C9.99456 14.2497 10.9484 14.6448 11.6517 15.3481C12.3549 16.0513 12.75 17.0052 12.75 17.9997Z" fill="url(#paint1_linear_2440_48156)" stroke="#9A99A0"/>
<defs>
<linearGradient id="paint0_linear_2440_48156" x1="7.18214" y1="19.1104" x2="10.3382" y2="17.8" gradientUnits="userSpaceOnUse">
<stop stop-color="#047CFD"/>
<stop offset="1" stop-color="#31B8F7"/>
</linearGradient>
<linearGradient id="paint1_linear_2440_48156" x1="2.50458" y1="17.0532" x2="14.4662" y2="13.1514" gradientUnits="userSpaceOnUse">
<stop stop-color="#047CFD"/>
<stop offset="1" stop-color="#31B8F7"/>
</linearGradient>
</defs>
</svg>
