<svg width="32" height="32" viewBox="0 0 32 32" fill="none" xmlns="http://www.w3.org/2000/svg">
<rect width="32" height="32" rx="3" fill="#00A6EC"/>
<path d="M23 6H9C7.3 6 6 7.3 6 9V23C6 24.7 7.3 26 9 26H23C24.7 26 26 24.7 26 23V9C26 7.3 24.7 6 23 6ZM12 21C12 21.6 11.6 22 11 22C10.4 22 10 21.6 10 21V17C10 16.4 10.4 16 11 16C11.6 16 12 16.4 12 17V21ZM17 21C17 21.6 16.6 22 16 22C15.4 22 15 21.6 15 21V11C15 10.4 15.4 10 16 10C16.6 10 17 10.4 17 11V21ZM22 21C22 21.6 21.6 22 21 22C20.4 22 20 21.6 20 21V15C20 14.4 20.4 14 21 14C21.6 14 22 14.4 22 15V21Z" fill="white"/>
</svg>
