<svg width="65" height="18" viewBox="0 0 65 18" fill="none" xmlns="http://www.w3.org/2000/svg">
<rect y="0.5" width="64.5623" height="17" rx="8.5" fill="url(#paint0_linear_2440_48172)"/>
<path d="M10.06 5.53V6.27H8.16V12.5H7.25V6.27H5.34V5.53H10.06ZM12.0902 7.91C12.2502 7.59667 12.4768 7.35333 12.7702 7.18C13.0702 7.00667 13.4335 6.92 13.8602 6.92V7.86H13.6202C12.6002 7.86 12.0902 8.41333 12.0902 9.52V12.5H11.1802V7.02H12.0902V7.91ZM19.9106 9.55C19.9106 9.72333 19.9006 9.90667 19.8806 10.1H15.5006C15.534 10.64 15.7173 11.0633 16.0506 11.37C16.3906 11.67 16.8006 11.82 17.2806 11.82C17.674 11.82 18.0006 11.73 18.2606 11.55C18.5273 11.3633 18.714 11.1167 18.8206 10.81H19.8006C19.654 11.3367 19.3606 11.7667 18.9206 12.1C18.4806 12.4267 17.934 12.59 17.2806 12.59C16.7606 12.59 16.294 12.4733 15.8806 12.24C15.474 12.0067 15.154 11.6767 14.9206 11.25C14.6873 10.8167 14.5706 10.3167 14.5706 9.75C14.5706 9.18333 14.684 8.68667 14.9106 8.26C15.1373 7.83333 15.454 7.50667 15.8606 7.28C16.274 7.04667 16.7473 6.93 17.2806 6.93C17.8006 6.93 18.2606 7.04333 18.6606 7.27C19.0606 7.49667 19.3673 7.81 19.5806 8.21C19.8006 8.60333 19.9106 9.05 19.9106 9.55ZM18.9706 9.36C18.9706 9.01333 18.894 8.71667 18.7406 8.47C18.5873 8.21667 18.3773 8.02667 18.1106 7.9C17.8506 7.76667 17.5606 7.7 17.2406 7.7C16.7806 7.7 16.3873 7.84667 16.0606 8.14C15.7406 8.43333 15.5573 8.84 15.5106 9.36H18.9706ZM23.7818 6.92C24.4485 6.92 24.9885 7.12333 25.4018 7.53C25.8151 7.93 26.0218 8.51 26.0218 9.27V12.5H25.1218V9.4C25.1218 8.85333 24.9851 8.43667 24.7118 8.15C24.4385 7.85667 24.0651 7.71 23.5918 7.71C23.1118 7.71 22.7285 7.86 22.4418 8.16C22.1618 8.46 22.0218 8.89667 22.0218 9.47V12.5H21.1118V7.02H22.0218V7.8C22.2018 7.52 22.4451 7.30333 22.7518 7.15C23.0651 6.99667 23.4085 6.92 23.7818 6.92ZM27.1683 9.74C27.1683 9.18 27.2816 8.69 27.5083 8.27C27.7349 7.84333 28.0449 7.51333 28.4383 7.28C28.8383 7.04667 29.2849 6.93 29.7783 6.93C30.2049 6.93 30.6016 7.03 30.9683 7.23C31.3349 7.42333 31.6149 7.68 31.8083 8V5.1H32.7283V12.5H31.8083V11.47C31.6283 11.7967 31.3616 12.0667 31.0083 12.28C30.6549 12.4867 30.2416 12.59 29.7683 12.59C29.2816 12.59 28.8383 12.47 28.4383 12.23C28.0449 11.99 27.7349 11.6533 27.5083 11.22C27.2816 10.7867 27.1683 10.2933 27.1683 9.74ZM31.8083 9.75C31.8083 9.33667 31.7249 8.97667 31.5583 8.67C31.3916 8.36333 31.1649 8.13 30.8783 7.97C30.5983 7.80333 30.2883 7.72 29.9483 7.72C29.6083 7.72 29.2983 7.8 29.0183 7.96C28.7383 8.12 28.5149 8.35333 28.3483 8.66C28.1816 8.96667 28.0983 9.32667 28.0983 9.74C28.0983 10.16 28.1816 10.5267 28.3483 10.84C28.5149 11.1467 28.7383 11.3833 29.0183 11.55C29.2983 11.71 29.6083 11.79 29.9483 11.79C30.2883 11.79 30.5983 11.71 30.8783 11.55C31.1649 11.3833 31.3916 11.1467 31.5583 10.84C31.7249 10.5267 31.8083 10.1633 31.8083 9.75ZM34.7361 6.13C34.5628 6.13 34.4161 6.07 34.2961 5.95C34.1761 5.83 34.1161 5.68333 34.1161 5.51C34.1161 5.33667 34.1761 5.19 34.2961 5.07C34.4161 4.95 34.5628 4.89 34.7361 4.89C34.9028 4.89 35.0428 4.95 35.1561 5.07C35.2761 5.19 35.3361 5.33667 35.3361 5.51C35.3361 5.68333 35.2761 5.83 35.1561 5.95C35.0428 6.07 34.9028 6.13 34.7361 6.13ZM35.1761 7.02V12.5H34.2661V7.02H35.1761ZM39.397 6.92C40.0637 6.92 40.6037 7.12333 41.017 7.53C41.4304 7.93 41.637 8.51 41.637 9.27V12.5H40.737V9.4C40.737 8.85333 40.6004 8.43667 40.327 8.15C40.0537 7.85667 39.6804 7.71 39.207 7.71C38.727 7.71 38.3437 7.86 38.057 8.16C37.777 8.46 37.637 8.89667 37.637 9.47V12.5H36.727V7.02H37.637V7.8C37.817 7.52 38.0604 7.30333 38.367 7.15C38.6804 6.99667 39.0237 6.92 39.397 6.92ZM45.3835 6.93C45.8568 6.93 46.2702 7.03333 46.6235 7.24C46.9835 7.44667 47.2502 7.70667 47.4235 8.02V7.02H48.3435V12.62C48.3435 13.12 48.2368 13.5633 48.0235 13.95C47.8102 14.3433 47.5035 14.65 47.1035 14.87C46.7102 15.09 46.2502 15.2 45.7235 15.2C45.0035 15.2 44.4035 15.03 43.9235 14.69C43.4435 14.35 43.1602 13.8867 43.0735 13.3H43.9735C44.0735 13.6333 44.2802 13.9 44.5935 14.1C44.9068 14.3067 45.2835 14.41 45.7235 14.41C46.2235 14.41 46.6302 14.2533 46.9435 13.94C47.2635 13.6267 47.4235 13.1867 47.4235 12.62V11.47C47.2435 11.79 46.9768 12.0567 46.6235 12.27C46.2702 12.4833 45.8568 12.59 45.3835 12.59C44.8968 12.59 44.4535 12.47 44.0535 12.23C43.6602 11.99 43.3502 11.6533 43.1235 11.22C42.8968 10.7867 42.7835 10.2933 42.7835 9.74C42.7835 9.18 42.8968 8.69 43.1235 8.27C43.3502 7.84333 43.6602 7.51333 44.0535 7.28C44.4535 7.04667 44.8968 6.93 45.3835 6.93ZM47.4235 9.75C47.4235 9.33667 47.3402 8.97667 47.1735 8.67C47.0068 8.36333 46.7802 8.13 46.4935 7.97C46.2135 7.80333 45.9035 7.72 45.5635 7.72C45.2235 7.72 44.9135 7.8 44.6335 7.96C44.3535 8.12 44.1302 8.35333 43.9635 8.66C43.7968 8.96667 43.7135 9.32667 43.7135 9.74C43.7135 10.16 43.7968 10.5267 43.9635 10.84C44.1302 11.1467 44.3535 11.3833 44.6335 11.55C44.9135 11.71 45.2235 11.79 45.5635 11.79C45.9035 11.79 46.2135 11.71 46.4935 11.55C46.7802 11.3833 47.0068 11.1467 47.1735 10.84C47.3402 10.5267 47.4235 10.1633 47.4235 9.75Z" fill="#E6F7FE"/>
<path d="M59.5623 10.3607C59.5623 12.8479 57.5032 14.8479 55.0161 14.6995C52.46 14.547 50.7104 12.0887 51.0398 9.51917C51.2392 7.95631 51.9719 6.61609 52.7694 5.57636C52.9081 5.39492 53.0504 6.85502 53.1927 6.69437C53.3354 6.52924 54.6581 4.24021 55.118 3.43615C55.1378 3.40069 55.1649 3.3699 55.1977 3.34587C55.2304 3.32184 55.2679 3.30514 55.3077 3.2969C55.3475 3.28866 55.3885 3.28908 55.4281 3.29812C55.4677 3.30716 55.5049 3.32462 55.5371 3.34931C56.4611 4.04653 59.5623 6.66542 59.5623 10.3607Z" fill="#007DB1"/>
<path d="M58 10.7425C58 12.0189 56.827 13.0449 55.4004 12.9985C53.8604 12.9492 52.8045 11.614 53.0305 10.2388C53.3568 8.26696 55.4934 7 55.4934 7C55.4934 7 58 8.48644 58 10.7425Z" fill="#66CAF4"/>
<defs>
<linearGradient id="paint0_linear_2440_48172" x1="6.86546" y1="13.0926" x2="21.708" y2="-10.3234" gradientUnits="userSpaceOnUse">
<stop stop-color="#047CFD"/>
<stop offset="1" stop-color="#31B8F7"/>
</linearGradient>
</defs>
</svg>
