<svg width="49" height="48" viewBox="0 0 49 48" fill="none" xmlns="http://www.w3.org/2000/svg">
<g clip-path="url(#clip0_2631_9726)">
<path d="M48.5 24C48.5 10.7452 37.7549 0 24.5 0C11.2452 0 0.5 10.7452 0.5 24C0.5 37.2549 11.2452 48 24.5 48C37.7549 48 48.5 37.2549 48.5 24Z" fill="#7524F9"/>
<path fill-rule="evenodd" clip-rule="evenodd" d="M38.75 17.101V18.6826C38.7505 18.8357 38.71 18.9859 38.6327 19.1185C38.5555 19.251 38.4445 19.3611 38.3105 19.4376L33.1591 22.38L37.7612 25.0015C38.062 25.1736 38.3117 25.421 38.4853 25.7189C38.659 26.0168 38.7505 26.3547 38.75 26.6985V30.9159C38.7505 31.26 38.6593 31.5981 38.4857 31.8963C38.312 32.1944 38.0623 32.4418 37.7612 32.6139L25.6576 39.4875C25.357 39.6597 25.016 39.75 24.6689 39.75C24.3217 39.75 23.9807 39.6597 23.6801 39.4875L19.7195 37.2229C19.6526 37.1847 19.5971 37.1298 19.5586 37.0637C19.52 36.9975 19.4996 36.9223 19.4996 36.846C19.4996 36.7695 19.52 36.6945 19.5586 36.6283C19.5971 36.5622 19.6526 36.5073 19.7195 36.4691L32.7932 29.0188C32.8265 28.9996 32.8541 28.9722 32.8735 28.9392C32.8927 28.9062 32.9027 28.8687 32.9027 28.8306C32.9027 28.7925 32.8927 28.7552 32.8735 28.722C32.8541 28.689 32.8265 28.6616 32.7932 28.6423L27.9395 25.8665C27.8059 25.79 27.6544 25.7498 27.5 25.7498C27.3458 25.7498 27.1942 25.79 27.0605 25.8665L13.7814 33.4397C13.6812 33.497 13.5675 33.5271 13.4518 33.5271C13.3361 33.5271 13.2224 33.497 13.1222 33.4397L11.6182 32.5878C11.3159 32.4161 11.0648 32.1682 10.8904 31.8694C10.716 31.5707 10.6244 31.2316 10.625 30.8865V29.1624C10.6249 29.0478 10.6553 28.9352 10.7132 28.8358C10.7711 28.7365 10.8543 28.6541 10.9546 28.5968L29.9939 17.7635C30.0272 17.7444 30.0548 17.717 30.074 17.684C30.0934 17.6508 30.1034 17.6135 30.1034 17.5753C30.1034 17.5372 30.0934 17.4998 30.074 17.4667C30.0548 17.4336 30.0272 17.4063 29.9939 17.3871L25.1324 14.6013C24.9989 14.5249 24.8473 14.4847 24.6931 14.4847C24.5387 14.4847 24.3872 14.5249 24.2536 14.6013L11.2842 21.9862C11.2174 22.0245 11.1417 22.0444 11.0646 22.0446C10.9875 22.0446 10.9117 22.0245 10.8449 21.9864C10.7782 21.9482 10.7227 21.8934 10.6841 21.8273C10.6454 21.7613 10.6251 21.6862 10.625 21.6099V17.0803C10.6246 16.7362 10.7158 16.3982 10.8893 16.1C11.0629 15.8019 11.3128 15.5544 11.6138 15.3823L23.7152 8.51078C24.0152 8.33993 24.3553 8.25 24.7013 8.25C25.0474 8.25 25.3873 8.33993 25.6873 8.51078L37.7612 15.4062C38.062 15.5781 38.3113 15.825 38.485 16.1226C38.6585 16.42 38.75 16.7574 38.75 17.101Z" fill="white"/>
</g>
<defs>
<clipPath id="clip0_2631_9726">
<rect width="48" height="48" fill="white" transform="translate(0.5)"/>
</clipPath>
</defs>
</svg>