<svg width="49" height="48" viewBox="0 0 49 48" fill="none" xmlns="http://www.w3.org/2000/svg">
<g clip-path="url(#clip0_2631_31005)">
<path d="M45.0295 17.0282L43.5494 13.0082L44.5787 10.7005C44.6435 10.5549 44.6626 10.3932 44.6338 10.2365C44.605 10.0799 44.5295 9.93555 44.4173 9.82251L41.6185 6.99339C41.0176 6.38373 40.256 5.95729 39.4221 5.76373C38.5885 5.57019 37.7168 5.61747 36.9089 5.9001L36.125 6.17257L31.8494 1.54036L24.5966 1.5H24.5495L17.2498 1.55718L12.9774 6.22641L12.2172 5.95728C11.404 5.67132 10.5261 5.62323 9.68653 5.81867C8.84698 6.01412 8.08058 6.44496 7.4773 7.06068L4.628 9.9436C4.53857 10.0337 4.47851 10.1488 4.4557 10.2737C4.43288 10.3986 4.44839 10.5274 4.50017 10.6433L5.57329 13.0385L4.09985 17.0552L5.05187 20.6781L9.39478 37.1886C9.8951 39.0905 11.0461 40.757 12.6478 41.8982C12.6478 41.8982 17.9191 45.6153 23.1199 48.9929C23.5312 49.3212 24.0418 49.5 24.5681 49.5C25.0943 49.5 25.6049 49.3212 26.0162 48.9929C31.8595 45.1646 36.4816 41.8847 36.4816 41.8847C38.0821 40.7428 39.2318 39.0765 39.7313 37.1751L44.0506 20.6579L45.0295 17.0282Z" fill="url(#paint0_linear_2631_31005)"/>
<path d="M25.7603 31.2549C25.4834 31.1309 25.1978 31.0275 24.9059 30.9453H24.3911C24.0992 31.0275 23.8136 31.1309 23.5367 31.2549L22.2416 31.7931C21.8312 31.9647 21.1718 32.2707 20.7782 32.4659L18.3965 33.7071C18.3102 33.7352 18.2343 33.7883 18.1785 33.8598C18.1227 33.9314 18.0897 34.0179 18.0836 34.1084C18.0774 34.1988 18.0984 34.2891 18.144 34.3674C18.1896 34.4459 18.2576 34.5087 18.3393 34.5482L20.4081 36.0081C20.7714 36.2639 21.3434 36.7146 21.6797 37.0173L22.2617 37.5186C22.5981 37.808 23.1464 38.289 23.4795 38.585L24.0312 39.0728C24.2016 39.2148 24.4164 39.2925 24.6384 39.2925C24.8603 39.2925 25.0751 39.2148 25.2456 39.0728L25.8242 38.5682L27.0419 37.5051L27.6273 36.9938C27.9636 36.7011 28.5321 36.2504 28.8954 35.9846L30.9644 34.5045C31.0461 34.4652 31.1142 34.4021 31.1597 34.3235C31.205 34.2449 31.2257 34.1543 31.2188 34.0638C31.2119 33.9732 31.1777 33.887 31.121 33.8162C31.0641 33.7452 30.9873 33.6933 30.9005 33.6668L28.5221 32.4591C28.1252 32.2574 27.4658 31.9545 27.0521 31.7864L25.7603 31.2549Z" fill="white"/>
<path d="M40.4273 17.9269L40.4945 17.7117C40.4986 17.4237 40.4806 17.1358 40.4407 16.8505C40.2404 16.341 39.9832 15.8557 39.6737 15.4039L38.3282 13.4293C38.0792 13.0593 37.6553 12.4739 37.3694 12.1274L35.5663 9.8702C35.4019 9.65019 35.2232 9.4412 35.0314 9.2445H34.9945C34.9945 9.2445 34.6312 9.30842 34.1938 9.39251L31.4387 9.92402L30.2311 10.1561C29.8301 10.175 29.4293 10.1167 29.0503 9.98457L26.8738 9.28149C26.4499 9.14357 25.7501 8.9451 25.3162 8.8509C24.859 8.8023 24.3977 8.8023 23.9404 8.8509C23.5064 8.95182 22.8067 9.14694 22.3828 9.28487L20.2063 9.99131C19.8274 10.1235 19.4266 10.1817 19.0256 10.1629L17.818 9.93411L15.0594 9.40596C14.6221 9.32187 14.2621 9.25458 14.2588 9.25796H14.2218C14.0301 9.45464 13.8514 9.66366 13.6869 9.88365L11.8872 12.1409C11.6113 12.4773 11.1774 13.0761 10.9284 13.4428L9.58284 15.4174C9.35044 15.7579 9.13815 16.1118 8.94705 16.477C8.83177 16.8844 8.77069 17.3052 8.76538 17.7285L8.83267 17.9437C8.86506 18.082 8.90664 18.2181 8.95714 18.3508C9.23635 18.6873 9.71403 19.2456 10.0202 19.572L14.7297 24.5776C14.8861 24.76 14.9907 24.9811 15.0327 25.2178C15.0747 25.4544 15.0526 25.698 14.9686 25.9231L14.1982 27.7498C14.0231 28.2337 14.0101 28.7616 14.1612 29.2536L14.316 29.6773C14.5688 30.3658 15.0022 30.9735 15.5708 31.4367L16.3108 32.0389C16.5031 32.1775 16.7275 32.2651 16.9628 32.2933C17.1982 32.3217 17.4368 32.2896 17.6564 32.2003L20.2871 30.9456C20.77 30.7039 21.2218 30.4045 21.6326 30.0541L23.7385 28.1535C23.8225 28.0777 23.8903 27.9859 23.938 27.8835C23.9857 27.7812 24.0124 27.6702 24.0166 27.5572C24.0206 27.4443 24.002 27.3316 23.9617 27.226C23.9215 27.1204 23.8604 27.024 23.7823 26.9424L19.0289 23.7399C18.8489 23.6122 18.7208 23.4241 18.6677 23.2099C18.6146 22.9957 18.6401 22.7697 18.7396 22.5726L20.5831 19.1077C20.6879 18.8956 20.7499 18.6649 20.7655 18.4288C20.7811 18.1927 20.75 17.9559 20.674 17.7318C20.4451 17.3044 20.0755 16.9693 19.6277 16.7832L13.8484 14.6C13.4312 14.4419 13.4548 14.2636 13.8955 14.2367L17.2898 13.9003C17.822 13.8664 18.3563 13.9141 18.8741 14.0415L21.8278 14.8657C22.0375 14.9289 22.2172 15.066 22.3334 15.2517C22.4497 15.4372 22.4948 15.6586 22.4602 15.8749L21.2996 22.2127C21.2221 22.5637 21.2027 22.9251 21.2425 23.2824C21.2896 23.4339 21.6865 23.6188 22.1204 23.7265L23.9201 24.1099C24.4429 24.2061 24.9787 24.2061 25.5013 24.1099L27.1193 23.7433C27.5533 23.6457 27.9469 23.4405 27.9973 23.2891C28.0361 22.9317 28.0156 22.5702 27.9368 22.2195L26.7695 15.8817C26.7349 15.6654 26.78 15.444 26.8963 15.2583C27.0125 15.0727 27.1922 14.9357 27.4019 14.8725L30.3554 14.0449C30.8734 13.9174 31.4077 13.8697 31.9399 13.9036L35.3342 14.2198C35.7782 14.2602 35.7985 14.425 35.3846 14.5832L29.6087 16.7731C29.161 16.9593 28.7914 17.2944 28.5625 17.7217C28.4093 18.1743 28.442 18.6691 28.6534 19.0977L30.5002 22.5625C30.5996 22.7595 30.6251 22.9857 30.572 23.1999C30.5191 23.4141 30.3908 23.6022 30.2108 23.7298L25.4609 26.9391C25.3826 27.0207 25.3217 27.1171 25.2814 27.2227C25.2412 27.3283 25.2226 27.441 25.2266 27.5539C25.2307 27.6667 25.2574 27.7777 25.3052 27.8802C25.3529 27.9826 25.4207 28.0744 25.5046 28.1502L27.6139 30.0508C28.0249 30.4 28.4767 30.6982 28.9594 30.9388L31.5901 32.1903C31.81 32.2791 32.0488 32.3106 32.2841 32.2816C32.5195 32.2528 32.7437 32.1646 32.9357 32.0254L33.6758 31.4199C34.2449 30.9558 34.6784 30.3469 34.9306 29.6572L35.0852 29.2333C35.2364 28.7413 35.2234 28.2136 35.0483 27.7296L34.2745 25.903C34.1906 25.6777 34.1684 25.4343 34.2104 25.1976C34.2524 24.961 34.357 24.7399 34.5134 24.5574L39.223 19.545C39.5291 19.2087 40.0034 18.6703 40.2826 18.324C40.3396 18.195 40.3879 18.0624 40.4273 17.9269Z" fill="white"/>
</g>
<defs>
<linearGradient id="paint0_linear_2631_31005" x1="4.11331" y1="25.5021" x2="45.0161" y2="25.5021" gradientUnits="userSpaceOnUse">
<stop stop-color="#F1562B"/>
<stop offset="0.3" stop-color="#F1542B"/>
<stop offset="0.41" stop-color="#F04D2A"/>
<stop offset="0.49" stop-color="#EF4229"/>
<stop offset="0.5" stop-color="#EF4029"/>
<stop offset="0.56" stop-color="#E83E28"/>
<stop offset="0.67" stop-color="#E13C26"/>
<stop offset="1" stop-color="#DF3C26"/>
</linearGradient>
<clipPath id="clip0_2631_31005">
<rect width="48" height="48" fill="white" transform="translate(0.5)"/>
</clipPath>
</defs>
</svg>