<svg width="49" height="48" viewBox="0 0 49 48" fill="none" xmlns="http://www.w3.org/2000/svg">
<g clip-path="url(#clip0_2631_30979)">
<path fill-rule="evenodd" clip-rule="evenodd" d="M23.7079 7.23252C10.9763 7.99884 3.59378 21.7351 10.0791 32.591C16.9386 44.0736 33.8575 43.2952 39.6449 31.2307C45.0984 19.8622 36.2113 6.47988 23.7079 7.23252ZM29.3745 18.746C29.52 18.836 29.6646 18.9806 29.7546 19.1262L29.8999 19.3612V28.6403L29.7546 28.8752C29.6646 29.0208 29.52 29.1654 29.3745 29.2554L29.1395 29.4007H19.8604L19.6254 29.2554C19.4799 29.1654 19.3353 29.0208 19.2453 28.8752L19.0999 28.6403L19.0857 24.1006C19.0761 21.0593 19.0878 19.5038 19.1213 19.3885C19.2035 19.1047 19.4284 18.8411 19.7064 18.7025L19.9617 18.5753L24.5506 18.588L29.1395 18.6007L29.3745 18.746Z" fill="#FBFBFC"/>
<path fill-rule="evenodd" clip-rule="evenodd" d="M22.532 0.0519743C5.52162 1.52929 -4.61358 19.645 3.0675 34.8429C9.04577 46.6715 23.5047 51.4157 35.3425 45.4329C47.1711 39.4546 51.9153 24.9957 45.9325 13.1579C42.2662 5.90401 35.3825 1.12705 27.14 0.116774C26.381 0.0237743 23.348 -0.0188257 22.532 0.0519743ZM26.66 7.31737C36.3848 8.66893 42.8887 17.7598 40.9821 27.3364C39.0808 36.8871 29.2613 42.8565 19.8749 40.1679C10.978 37.6194 5.78586 28.2661 8.3325 19.3753C10.2308 12.7482 16.0268 7.93009 22.916 7.25233C23.6072 7.18429 26.0019 7.22593 26.66 7.31737ZM19.772 18.6911C19.5416 18.7917 19.3094 19.0129 19.2142 19.2223C19.0973 19.4797 19.0732 28.4424 19.1887 28.7179C19.288 28.9548 19.5075 29.1887 19.7219 29.2861C19.9793 29.403 28.942 29.4271 29.2175 29.3117C29.4544 29.2123 29.6883 28.9929 29.7857 28.7784C29.9026 28.521 29.9267 19.5583 29.8113 19.2828C29.7119 19.0459 29.4925 18.8121 29.278 18.7146C29.0242 18.5994 20.0329 18.5771 19.772 18.6911Z" fill="#0454FC"/>
<path fill-rule="evenodd" clip-rule="evenodd" d="M22.28 18.6126C23.501 18.6196 25.499 18.6196 26.72 18.6126C27.941 18.6054 26.942 18.5996 24.5 18.5996C22.058 18.5996 21.059 18.6054 22.28 18.6126ZM19.099 24.0006C19.099 26.4426 19.1048 27.4416 19.112 26.2206C19.119 24.9996 19.119 23.0016 19.112 21.7806C19.1048 20.5596 19.099 21.5586 19.099 24.0006ZM29.899 24.0006C29.899 26.4426 29.9048 27.4416 29.912 26.2206C29.919 24.9996 29.919 23.0016 29.912 21.7806C29.9048 20.5596 29.899 21.5586 29.899 24.0006ZM22.28 29.4126C23.501 29.4197 25.499 29.4197 26.72 29.4126C27.941 29.4054 26.942 29.3996 24.5 29.3996C22.058 29.3996 21.059 29.4054 22.28 29.4126Z" fill="#5286FC"/>
<path fill-rule="evenodd" clip-rule="evenodd" d="M23.6239 7.23463C23.6955 7.24615 23.7684 7.24615 23.8399 7.23463C23.8993 7.22323 23.8507 7.21387 23.7319 7.21387C23.6131 7.21387 23.5645 7.22323 23.6239 7.23463ZM25.1599 7.23463C25.2315 7.24615 25.3044 7.24615 25.3759 7.23463C25.4353 7.22323 25.3867 7.21387 25.2679 7.21387C25.1491 7.21387 25.1005 7.22323 25.1599 7.23463ZM7.71301 23.2328C7.71301 23.3516 7.72237 23.4002 7.73377 23.3408C7.74529 23.2692 7.74529 23.1963 7.73377 23.1248C7.72237 23.0654 7.71301 23.114 7.71301 23.2328ZM41.265 23.2328C41.265 23.3516 41.2744 23.4002 41.2858 23.3408C41.2973 23.2692 41.2973 23.1963 41.2858 23.1248C41.2744 23.0654 41.265 23.114 41.265 23.2328ZM7.71301 24.7688C7.71301 24.8876 7.72237 24.9362 7.73377 24.8768C7.74529 24.8052 7.74529 24.7323 7.73377 24.6608C7.72237 24.6014 7.71301 24.65 7.71301 24.7688ZM41.265 24.7688C41.265 24.8876 41.2744 24.9362 41.2858 24.8768C41.2973 24.8052 41.2973 24.7323 41.2858 24.6608C41.2744 24.6014 41.265 24.65 41.265 24.7688ZM12.5939 35.8688C12.7929 36.0807 12.8359 36.1189 12.8359 36.0827C12.8359 36.0751 12.7333 35.9725 12.6079 35.8547L12.3799 35.6408L12.5939 35.8688ZM36.3559 35.8808C36.2393 35.9996 36.1547 36.0968 36.1679 36.0968C36.1811 36.0968 36.2873 35.9996 36.4039 35.8808C36.5206 35.762 36.6052 35.6648 36.592 35.6648C36.5788 35.6648 36.4726 35.762 36.3559 35.8808ZM23.6239 40.7866C23.6955 40.7981 23.7684 40.7981 23.8399 40.7866C23.8993 40.7752 23.8507 40.7659 23.7319 40.7659C23.6131 40.7659 23.5645 40.7752 23.6239 40.7866ZM25.1599 40.7866C25.2315 40.7981 25.3044 40.7981 25.3759 40.7866C25.4353 40.7752 25.3867 40.7659 25.2679 40.7659C25.1491 40.7659 25.1005 40.7752 25.1599 40.7866Z" fill="#84ACFC"/>
<path fill-rule="evenodd" clip-rule="evenodd" d="M12.5944 12.1324L12.332 12.4084L12.608 12.1461C12.8645 11.9023 12.906 11.8564 12.8704 11.8564C12.8629 11.8564 12.7387 11.9806 12.5944 12.1324ZM36.356 12.1204C36.4994 12.2656 36.6276 12.3844 36.6408 12.3844C36.654 12.3844 36.5474 12.2656 36.404 12.1204C36.2606 11.9752 36.1325 11.8564 36.1193 11.8564C36.1061 11.8564 36.2126 11.9752 36.356 12.1204Z" fill="#7CACFC"/>
</g>
<defs>
<clipPath id="clip0_2631_30979">
<rect width="48" height="48" fill="white" transform="translate(0.5)"/>
</clipPath>
</defs>
</svg>