<svg width="49" height="48" viewBox="0 0 49 48" fill="none" xmlns="http://www.w3.org/2000/svg">
<path fill-rule="evenodd" clip-rule="evenodd" d="M4.25953 31.9897C4.25899 32.0307 4.25871 32.0717 4.25871 32.1129C4.25871 37.1479 8.34035 41.2294 13.3754 41.2294C18.4103 41.2294 22.4919 37.1479 22.4919 32.1129C22.4919 32.0717 22.4916 32.0307 22.4912 31.9897H18.1784C18.1794 32.0306 18.1799 32.0716 18.1799 32.1129C18.1799 34.7665 16.0288 36.9176 13.3752 36.9176C10.7217 36.9176 8.57055 34.7665 8.57055 32.1129C8.57055 32.0716 8.57107 32.0306 8.5721 31.9897H4.25953ZM13.3754 6.85742C19.2948 6.85742 24.0935 11.6561 24.0935 17.5756C24.0935 23.4951 19.2948 28.2938 13.3754 28.2938C7.45591 28.2938 2.65723 23.4951 2.65723 17.5756C2.65723 11.6561 7.45591 6.85742 13.3754 6.85742ZM13.3754 11.1693C16.9134 11.1693 19.7817 14.0374 19.7817 17.5755C19.7817 21.1136 16.9134 23.9818 13.3754 23.9818C9.83728 23.9818 6.9691 21.1136 6.9691 17.5755C6.9691 14.0374 9.83728 11.1693 13.3754 11.1693ZM14.1144 15.4842C14.9758 15.7886 15.5929 16.61 15.5929 17.5756C15.5929 18.8004 14.6001 19.7931 13.3754 19.7931C12.1507 19.7931 11.1578 18.8004 11.1578 17.5756C11.1578 16.6101 11.7749 15.7887 12.6361 15.4843V14.0029H14.1144V15.4842ZM27.7956 20.3464C27.0848 19.0484 26.6806 17.5583 26.6806 15.974C26.6806 10.9391 30.7623 6.85742 35.7972 6.85742C40.8322 6.85742 44.9138 10.9391 44.9138 15.974C44.9138 17.5585 44.5096 19.0484 43.7987 20.3465C42.6732 19.4594 41.3968 18.7551 40.0143 18.2786C40.3889 17.5944 40.6019 16.8091 40.6019 15.974C40.6019 13.3204 38.4508 11.1693 35.7972 11.1693C33.1437 11.1693 30.9925 13.3204 30.9925 15.974C30.9925 16.8091 31.2055 17.5944 31.5802 18.2785C30.1977 18.755 28.9212 19.4593 27.7956 20.3464ZM35.7972 41.2294C41.7167 41.2294 46.5154 36.4308 46.5154 30.5113C46.5154 24.5918 41.7167 19.7931 35.7972 19.7931C29.8777 19.7931 25.0791 24.5918 25.0791 30.5113C25.0791 36.4308 29.8777 41.2294 35.7972 41.2294ZM35.7972 36.9176C39.3353 36.9176 42.2034 34.0494 42.2034 30.5113C42.2034 26.9732 39.3353 24.1051 35.7972 24.1051C32.2591 24.1051 29.3909 26.9732 29.3909 30.5113C29.3909 34.0494 32.2591 36.9176 35.7972 36.9176ZM36.5363 32.6028C37.3977 32.2983 38.0148 31.4769 38.0148 30.5113C38.0148 29.2866 37.0219 28.2938 35.7972 28.2938C34.5725 28.2938 33.5797 29.2866 33.5797 30.5113C33.5797 31.4768 34.1968 32.2982 35.058 32.6026V34.084H36.5363V32.6028Z" fill="#DEAE30"/>
</svg>