<svg width="49" height="48" viewBox="0 0 49 48" fill="none" xmlns="http://www.w3.org/2000/svg">
<g clip-path="url(#clip0_2631_9637)">
<path d="M24.5 48C37.7548 48 48.5 37.2548 48.5 24C48.5 10.7452 37.7548 0 24.5 0C11.2452 0 0.5 10.7452 0.5 24C0.5 37.2548 11.2452 48 24.5 48Z" fill="black"/>
<path fill-rule="evenodd" clip-rule="evenodd" d="M9.99996 30.9813C10.5932 30.9813 11.074 31.4621 11.074 32.0553C11.074 32.6485 10.5932 33.1294 9.99996 33.1294C9.40676 33.1294 8.92589 32.6485 8.92589 32.0553C8.92589 31.4621 9.40676 30.9813 9.99996 30.9813ZM24.5 30.9813C25.0932 30.9813 25.574 31.4621 25.574 32.0553C25.574 32.6485 25.0932 33.1294 24.5 33.1294C23.9068 33.1294 23.4259 32.6485 23.4259 32.0553C23.4259 31.4621 23.9068 30.9813 24.5 30.9813ZM39 30.9813C39.5932 30.9813 40.074 31.4621 40.074 32.0553C40.074 32.6485 39.5932 33.1294 39 33.1294C38.4068 33.1294 37.9259 32.6485 37.9259 32.0553C37.9259 31.4621 38.4068 30.9813 39 30.9813ZM13.2222 26.6849C14.112 26.6849 14.8333 27.4063 14.8333 28.2961C14.8333 29.1859 14.112 29.9072 13.2222 29.9072C12.3324 29.9072 11.6111 29.1859 11.6111 28.2961C11.6111 27.4063 12.3324 26.6849 13.2222 26.6849ZM20.7407 26.6849C21.6305 26.6849 22.3518 27.4063 22.3518 28.2961C22.3518 29.1859 21.6305 29.9072 20.7407 29.9072C19.8509 29.9072 19.1296 29.1859 19.1296 28.2961C19.1296 27.4063 19.8509 26.6849 20.7407 26.6849ZM28.2592 26.6849C29.149 26.6849 29.8704 27.4063 29.8704 28.2961C29.8704 29.1859 29.149 29.9072 28.2592 29.9072C27.3694 29.9072 26.6481 29.1859 26.6481 28.2961C26.6481 27.4063 27.3694 26.6849 28.2592 26.6849ZM35.7778 26.6849C36.6676 26.6849 37.3888 27.4063 37.3888 28.2961C37.3888 29.1859 36.6676 29.9072 35.7778 29.9072C34.888 29.9072 34.1666 29.1859 34.1666 28.2961C34.1666 27.4063 34.888 26.6849 35.7778 26.6849ZM6.2407 27.222C6.83389 27.222 7.31476 27.7029 7.31476 28.2961C7.31476 28.8893 6.83389 29.3701 6.2407 29.3701C5.64751 29.3701 5.16663 28.8893 5.16663 28.2961C5.16663 27.7029 5.64751 27.222 6.2407 27.222ZM42.7592 27.222C43.3524 27.222 43.8333 27.7029 43.8333 28.2961C43.8333 28.8893 43.3524 29.3701 42.7592 29.3701C42.166 29.3701 41.6852 28.8893 41.6852 28.2961C41.6852 27.7029 42.166 27.222 42.7592 27.222ZM16.9814 22.3886C18.1678 22.3886 19.1296 23.3504 19.1296 24.5368C19.1296 25.7232 18.1678 26.6849 16.9814 26.6849C15.795 26.6849 14.8333 25.7232 14.8333 24.5368C14.8333 23.3504 15.795 22.3886 16.9814 22.3886ZM32.0185 22.3886C33.2049 22.3886 34.1666 23.3504 34.1666 24.5368C34.1666 25.7232 33.2049 26.6849 32.0185 26.6849C30.8321 26.6849 29.8704 25.7232 29.8704 24.5368C29.8704 23.3504 30.8321 22.3886 32.0185 22.3886ZM9.99996 22.9257C10.8898 22.9257 11.6111 23.647 11.6111 24.5368C11.6111 25.4266 10.8898 26.1479 9.99996 26.1479C9.11016 26.1479 8.38883 25.4266 8.38883 24.5368C8.38883 23.647 9.11016 22.9257 9.99996 22.9257ZM24.5 22.9257C25.3898 22.9257 26.1111 23.647 26.1111 24.5368C26.1111 25.4266 25.3898 26.1479 24.5 26.1479C23.6102 26.1479 22.8888 25.4266 22.8888 24.5368C22.8888 23.647 23.6102 22.9257 24.5 22.9257ZM39 22.9257C39.8898 22.9257 40.6111 23.647 40.6111 24.5368C40.6111 25.4266 39.8898 26.1479 39 26.1479C38.1102 26.1479 37.3888 25.4266 37.3888 24.5368C37.3888 23.647 38.1102 22.9257 39 22.9257ZM13.2222 18.6294C14.4086 18.6294 15.3704 19.5911 15.3704 20.7775C15.3704 21.9639 14.4086 22.9257 13.2222 22.9257C12.0358 22.9257 11.074 21.9639 11.074 20.7775C11.074 19.5911 12.0358 18.6294 13.2222 18.6294ZM20.7407 18.6294C21.9271 18.6294 22.8888 19.5911 22.8888 20.7775C22.8888 21.9639 21.9271 22.9257 20.7407 22.9257C19.5543 22.9257 18.5926 21.9639 18.5926 20.7775C18.5926 19.5911 19.5543 18.6294 20.7407 18.6294ZM28.2592 18.6294C29.4456 18.6294 30.4074 19.5911 30.4074 20.7775C30.4074 21.9639 29.4456 22.9257 28.2592 22.9257C27.0728 22.9257 26.1111 21.9639 26.1111 20.7775C26.1111 19.5911 27.0728 18.6294 28.2592 18.6294ZM35.7778 18.6294C36.9642 18.6294 37.9259 19.5911 37.9259 20.7775C37.9259 21.9639 36.9642 22.9257 35.7778 22.9257C34.5914 22.9257 33.6296 21.9639 33.6296 20.7775C33.6296 19.5911 34.5914 18.6294 35.7778 18.6294ZM16.9814 14.8701C18.1678 14.8701 19.1296 15.8319 19.1296 17.0182C19.1296 18.2046 18.1678 19.1665 16.9814 19.1665C15.795 19.1665 14.8333 18.2046 14.8333 17.0182C14.8333 15.8319 15.795 14.8701 16.9814 14.8701ZM32.0185 14.8701C33.2049 14.8701 34.1666 15.8319 34.1666 17.0182C34.1666 18.2046 33.2049 19.1665 32.0185 19.1665C30.8321 19.1665 29.8704 18.2046 29.8704 17.0182C29.8704 15.8319 30.8321 14.8701 32.0185 14.8701Z" fill="white"/>
</g>
<defs>
<clipPath id="clip0_2631_9637">
<rect width="48" height="48" fill="white" transform="translate(0.5)"/>
</clipPath>
</defs>
</svg>