<svg width="49" height="48" viewBox="0 0 49 48" fill="none" xmlns="http://www.w3.org/2000/svg">
<g clip-path="url(#clip0_2631_31000)">
<path d="M24.5 48C37.7548 48 48.5 37.2548 48.5 24C48.5 10.7452 37.7548 0 24.5 0C11.2452 0 0.5 10.7452 0.5 24C0.5 37.2548 11.2452 48 24.5 48Z" fill="#EBF5FF"/>
<path fill-rule="evenodd" clip-rule="evenodd" d="M34.3899 14.091C34.7426 14.091 35.0764 14.2348 35.322 14.4786C35.5675 14.7286 35.7062 15.0661 35.6998 15.4098C35.6369 19.1351 35.492 21.9852 35.2213 24.2416C34.9567 26.498 34.56 28.1731 33.9618 29.5295C33.5587 30.4357 33.0612 31.1858 32.4755 31.8233C31.6884 32.6672 30.7879 33.2797 29.8055 33.861C29.3855 34.1103 28.9488 34.3564 28.4908 34.6147C27.5135 35.1656 26.4388 35.7712 25.2211 36.58C24.7803 36.8736 24.2072 36.8736 23.7664 36.58C22.5299 35.7618 21.4411 35.1486 20.4549 34.5932C20.2355 34.4698 20.0213 34.3492 19.8116 34.2298C18.6593 33.5672 17.6203 32.9359 16.7134 32.0233C16.1089 31.4233 15.5862 30.692 15.1706 29.8232C14.6038 28.6606 14.2196 27.2543 13.9363 25.4355C13.5584 23.004 13.3695 19.8226 13.3003 15.4098C13.2939 15.0661 13.4262 14.7286 13.6718 14.4786C13.9174 14.2348 14.2575 14.091 14.6101 14.091H15.1517C16.8204 14.0973 20.5043 13.9348 23.6908 11.4721C24.1631 11.1096 24.8244 11.1096 25.2967 11.4721C28.4831 13.9348 32.1671 14.0973 33.8422 14.091H34.3899ZM31.4618 28.6982C31.8711 27.8605 32.2111 26.7043 32.4693 25.0416C32.7779 23.054 32.9668 20.3539 33.055 16.6787C31.0902 16.6224 27.7148 16.2474 24.4969 14.0973C21.279 16.2411 17.9036 16.6162 15.9451 16.6787C16.0143 19.7164 16.1529 22.079 16.3733 23.9354C16.6251 26.048 16.9842 27.4794 17.4312 28.4856C17.7272 29.1544 18.0547 29.6357 18.4451 30.0607C18.9679 30.6296 19.629 31.0984 20.5295 31.6358C20.9031 31.8583 21.315 32.0896 21.7633 32.3416C22.562 32.7902 23.4765 33.304 24.4969 33.9485C25.4985 33.3144 26.3998 32.806 27.1892 32.3606C27.4272 32.2264 27.6549 32.0979 27.8723 31.9733C28.9806 31.342 29.7992 30.8171 30.41 30.2045C30.8195 29.7857 31.1532 29.3295 31.4618 28.6982Z" fill="#3375BB"/>
</g>
<defs>
<clipPath id="clip0_2631_31000">
<rect width="48" height="48" fill="white" transform="translate(0.5)"/>
</clipPath>
</defs>
</svg>